<svg width="500" height="500" viewBox="0 0 693 528" fill="none" xmlns="http://www.w3.org/2000/svg">
<g id="undraw_static_website_re_x70h 1" clip-path="url(#clip0_0_1)">
<path id="Vector" d="M693 283.5V505.31C692.993 511.326 690.6 517.093 686.346 521.346C682.093 525.6 676.326 527.993 670.31 528H500.17L501.75 526L691 286.04L693 283.5Z" fill="#6C63FF"/>
<path id="Vector_2" d="M270.812 205.368H75.443C73.8421 205.368 72.3069 206.004 71.1749 207.136C70.0429 208.268 69.407 209.803 69.407 211.404C69.407 213.005 70.0429 214.54 71.1749 215.672C72.3069 216.804 73.8421 217.44 75.443 217.44H270.812C272.413 217.44 273.948 216.804 275.08 215.672C276.212 214.54 276.848 213.005 276.848 211.404C276.848 209.803 276.212 208.268 275.08 207.136C273.948 206.004 272.413 205.368 270.812 205.368Z" fill="#BC0372"/>
<path id="Vector_3" d="M136.018 171.524H75.443C73.8421 171.524 72.3069 172.16 71.1749 173.291C70.0429 174.423 69.407 175.959 69.407 177.56C69.407 179.16 70.0429 180.696 71.1749 181.828C72.3069 182.96 73.8421 183.596 75.443 183.596H136.018C137.618 183.596 139.154 182.96 140.286 181.828C141.418 180.696 142.054 179.16 142.054 177.56C142.054 175.959 141.418 174.423 140.286 173.291C139.154 172.16 137.618 171.524 136.018 171.524Z" fill="#1543E5"/>
<path id="Vector_4" d="M670.31 0H22.69C16.6745 0.0072432 10.9074 2.40012 6.65375 6.65375C2.40012 10.9074 0.0072432 16.6745 0 22.69V505.31C0.0072432 511.326 2.40012 517.093 6.65375 521.346C10.9074 525.6 16.6745 527.993 22.69 528H670.31C676.326 527.993 682.093 525.6 686.346 521.346C690.6 517.093 692.993 511.326 693 505.31V22.69C692.993 16.6745 690.6 10.9074 686.346 6.65375C682.093 2.40012 676.326 0.0072432 670.31 0ZM691 505.31C691 508.027 690.465 510.717 689.425 513.228C688.385 515.738 686.861 518.019 684.94 519.94C683.019 521.861 680.738 523.385 678.228 524.425C675.717 525.465 673.027 526 670.31 526H22.69C17.2027 526 11.9401 523.82 8.05997 519.94C4.17984 516.06 2 510.797 2 505.31V157.676C2 116.388 18.4015 76.7911 47.5963 47.5963C76.7911 18.4015 116.388 2 157.676 2H670.31C673.027 2 675.717 2.53517 678.228 3.57494C680.738 4.61471 683.019 6.13872 684.94 8.05997C686.861 9.98121 688.385 12.2621 689.425 14.7723C690.465 17.2825 691 19.973 691 22.69V505.31Z" fill="#BC0372"/>
<path id="Vector_5" d="M629.89 87.2685H63.16C62.8948 87.2685 62.6404 87.1632 62.4529 86.9756C62.2653 86.7881 62.16 86.5337 62.16 86.2685C62.16 86.0033 62.2653 85.749 62.4529 85.5614C62.6404 85.3739 62.8948 85.2685 63.16 85.2685H629.89C630.156 85.2685 630.41 85.3739 630.598 85.5614C630.785 85.749 630.89 86.0033 630.89 86.2685C630.89 86.5337 630.785 86.7881 630.598 86.9756C630.41 87.1632 630.156 87.2685 629.89 87.2685Z" fill="#E6E6E6"/>
<g id="round">
<path id="Vector_6" d="M77.4566 59.2901C82.1271 59.2901 85.9132 55.4196 85.9132 50.6451C85.9132 45.8705 82.1271 42 77.4566 42C72.7862 42 69 45.8705 69 50.6451C69 55.4196 72.7862 59.2901 77.4566 59.2901Z" fill="#1543E6"/>
<path id="Vector_7" d="M106.67 59.2901C111.341 59.2901 115.127 55.4196 115.127 50.6451C115.127 45.8705 111.341 42 106.67 42C102 42 98.2137 45.8705 98.2137 50.6451C98.2137 55.4196 102 59.2901 106.67 59.2901Z" fill="#BC0372"/>
<path id="Vector_8" d="M135.884 59.2901C140.555 59.2901 144.341 55.4196 144.341 50.6451C144.341 45.8705 140.555 42 135.884 42C131.214 42 127.428 45.8705 127.428 50.6451C127.428 55.4196 131.214 59.2901 135.884 59.2901Z" fill="#E6E6E6"/>
</g>
<g id="cooding">
<path id="Vector_9" d="M183.254 55.4358C183.121 55.436 182.989 55.4095 182.866 55.3578C182.743 55.3061 182.632 55.2304 182.539 55.135L176.833 49.302C176.65 49.1152 176.548 48.8642 176.548 48.6028C176.548 48.3414 176.65 48.0904 176.833 47.9036L182.539 42.0711C182.63 41.9757 182.74 41.8994 182.861 41.8466C182.982 41.7938 183.113 41.7656 183.245 41.7634C183.377 41.7613 183.508 41.7855 183.631 41.8344C183.754 41.8833 183.865 41.956 183.96 42.0484C184.054 42.1408 184.13 42.251 184.181 42.3727C184.233 42.4943 184.26 42.625 184.261 42.7571C184.261 42.8893 184.236 43.0203 184.186 43.1426C184.136 43.2648 184.062 43.3759 183.969 43.4695L178.947 48.6028L183.969 53.7366C184.106 53.8773 184.199 54.0555 184.236 54.2489C184.273 54.4422 184.252 54.6422 184.175 54.8236C184.099 55.005 183.971 55.1599 183.807 55.2688C183.643 55.3777 183.451 55.4358 183.254 55.4358Z" fill="#6C63FF"/>
<path id="Vector_10" d="M192.842 55.4358C192.645 55.4358 192.453 55.3777 192.289 55.2688C192.125 55.1599 191.997 55.005 191.92 54.8236C191.844 54.6422 191.823 54.4422 191.86 54.2489C191.897 54.0555 191.99 53.8773 192.127 53.7366L197.149 48.6028L192.127 43.4695C191.945 43.2793 191.845 43.0248 191.849 42.7613C191.853 42.4978 191.961 42.2466 192.15 42.0624C192.338 41.8781 192.592 41.7756 192.855 41.7773C193.119 41.7789 193.371 41.8845 193.557 42.0711L199.263 47.9036C199.445 48.0904 199.548 48.3414 199.548 48.6028C199.548 48.8642 199.445 49.1152 199.263 49.302L193.557 55.135C193.464 55.2304 193.353 55.3061 193.23 55.3578C193.107 55.4095 192.975 55.436 192.842 55.4358Z" fill="#6C63FF"/>
</g>
<path id="Vector_11" d="M579.352 40.9588H568.742C568.454 40.9588 568.17 41.0153 567.904 41.1254C567.638 41.2354 567.397 41.3967 567.193 41.6001C566.99 41.8035 566.829 42.0449 566.719 42.3107C566.608 42.5764 566.552 42.8612 566.552 43.1488V53.7688C566.552 54.0565 566.608 54.3413 566.719 54.607C566.829 54.8728 566.99 55.1142 567.193 55.3176C567.397 55.521 567.638 55.6823 567.904 55.7923C568.17 55.9023 568.454 55.9589 568.742 55.9588H579.352C579.934 55.9594 580.492 55.7292 580.905 55.3186C581.317 54.9081 581.55 54.3508 581.552 53.7688V43.1488C581.55 42.5669 581.317 42.0096 580.905 41.5991C580.492 41.1885 579.934 40.9583 579.352 40.9588Z" fill="#E6E6E6"/>
<path id="Vector_12" d="M553.352 40.9588H542.742C542.454 40.9588 542.17 41.0153 541.904 41.1254C541.638 41.2354 541.397 41.3967 541.193 41.6001C540.99 41.8035 540.829 42.0449 540.719 42.3107C540.608 42.5764 540.552 42.8612 540.552 43.1488V53.7688C540.552 54.0565 540.608 54.3413 540.719 54.607C540.829 54.8728 540.99 55.1142 541.193 55.3176C541.397 55.521 541.638 55.6823 541.904 55.7923C542.17 55.9023 542.454 55.9589 542.742 55.9588H553.352C553.934 55.9594 554.492 55.7292 554.905 55.3186C555.317 54.9081 555.55 54.3508 555.552 53.7688V43.1488C555.55 42.5669 555.317 42.0096 554.905 41.5991C554.492 41.1885 553.934 40.9583 553.352 40.9588Z" fill="#6C63FF"/>
<path id="Vector_13" d="M603.852 41.4588H593.242C592.954 41.4588 592.67 41.5153 592.404 41.6254C592.138 41.7354 591.897 41.8967 591.693 42.1001C591.49 42.3035 591.329 42.5449 591.219 42.8107C591.108 43.0764 591.052 43.3612 591.052 43.6488V54.2688C591.052 54.5565 591.108 54.8413 591.219 55.107C591.329 55.3728 591.49 55.6142 591.693 55.8176C591.897 56.021 592.138 56.1823 592.404 56.2923C592.67 56.4023 592.954 56.4589 593.242 56.4588H603.852C604.434 56.4594 604.992 56.2292 605.405 55.8186C605.817 55.4081 606.05 54.8508 606.052 54.2688V43.6488C606.05 43.0669 605.817 42.5096 605.405 42.0991C604.992 41.6885 604.434 41.4583 603.852 41.4588Z" fill="#E6E6E6"/>
<path id="Vector_14" d="M388.93 45.4988H304.12C303.412 45.4988 302.733 45.7801 302.232 46.2808C301.732 46.7816 301.45 47.4607 301.45 48.1688C301.45 48.8769 301.732 49.5561 302.232 50.0568C302.733 50.5575 303.412 50.8388 304.12 50.8388H388.93C389.638 50.8388 390.318 50.5575 390.818 50.0568C391.319 49.5561 391.6 48.8769 391.6 48.1688C391.6 47.4607 391.319 46.7816 390.818 46.2808C390.318 45.7801 389.638 45.4988 388.93 45.4988Z" fill="#711853"/>
<path id="Vector_15" d="M91.6442 419.008L40.9273 417.405C33.8931 417.183 25.9828 417.194 20.9656 420.829C15.2713 424.955 16.1335 432.265 20.8613 437.006C25.5891 441.747 33.1383 444.455 40.5477 446.658C79.9115 458.358 123.476 460.733 165.777 458.086C208.077 455.438 249.507 447.954 290.732 440.495C294.642 439.788 299.074 438.77 300.668 436.049C302.21 433.417 300.192 430.242 297.057 428.541C293.922 426.84 289.948 426.267 286.114 425.76C216.667 416.634 146.468 414.632 76.6134 419.784" fill="#6C63FF"/>
<g id="css">
<path id="Vector_16" d="M160.79 365.605V353.605C152.082 353.728 120.92 353.516 112.79 353.605C112.185 395.546 108.477 387.33 142.838 387.493C144.418 387.499 145.93 388.13 147.046 389.248C148.161 390.367 148.789 391.881 148.791 393.46V393.64C148.791 395.222 148.162 396.739 147.043 397.858C145.925 398.976 144.408 399.605 142.826 399.605H112.79V411.605H160.79C160.858 411.564 160.742 400.017 160.791 399.605C162.82 364.84 158.804 377.343 129.625 375.949C128.319 375.882 127.089 375.316 126.189 374.368C125.29 373.42 124.789 372.162 124.79 370.854V370.705C124.79 369.352 125.328 368.055 126.284 367.098C127.24 366.142 128.538 365.605 129.89 365.605H160.79Z" fill="url(#paint0_linear_0_1)"/>
<path id="Vector_17" d="M221.109 365.022V353.022C212.401 353.146 181.238 352.933 173.109 353.023C172.499 395.328 168.731 386.601 204.061 386.917C205.405 386.931 206.688 387.474 207.634 388.429C208.579 389.384 209.109 390.673 209.109 392.017C209.109 392.647 209.109 393.292 209.109 393.924C209.109 394.594 208.977 395.257 208.721 395.875C208.464 396.494 208.089 397.056 207.615 397.529C207.141 398.003 206.579 398.378 205.961 398.634C205.342 398.891 204.679 399.022 204.009 399.022H173.109V411.022H221.109C221.176 410.982 221.06 399.435 221.109 399.022C223.139 364.257 219.123 376.761 189.943 375.367C188.638 375.3 187.408 374.734 186.508 373.786C185.608 372.837 185.107 371.579 185.109 370.272V370.122C185.109 368.77 185.646 367.472 186.602 366.516C187.559 365.56 188.856 365.022 190.209 365.022H221.109Z" fill="url(#paint1_linear_0_1)"/>
<path id="Vector_18" d="M100.109 365.022V353.022H52.1089C52.0749 363.726 52.1334 392.054 52.1088 403.022C42.7 418.951 96.1512 407.923 100.112 411.027C100.109 411.022 100.109 399.022 100.109 399.022C63.5878 398.832 62.67 405.668 63.8449 372.593C63.9156 370.562 64.7717 368.637 66.2329 367.225C67.6942 365.813 69.6465 365.023 71.6786 365.022C82.2369 365.022 100.109 365.022 100.109 365.022Z" fill="url(#paint2_linear_0_1)"/>
</g>
<path id="Vector_19" d="M310.644 292.675L259.927 291.338C252.893 291.153 244.983 291.163 239.966 294.193C234.271 297.632 235.133 303.725 239.861 307.677C244.589 311.629 252.138 313.887 259.548 315.723C298.912 325.476 342.476 327.456 384.777 325.249C427.077 323.042 468.507 316.804 509.732 310.586C513.642 309.996 518.074 309.148 519.668 306.88C521.21 304.685 519.192 302.039 516.057 300.621C512.922 299.203 508.948 298.725 505.114 298.303C435.549 290.693 365.462 289.027 295.613 293.322" fill="#6C63FF"/>
<g id="html" style="mix-blend-mode:screen">
<path id="Vector_20" d="M310.496 220.315C309.679 238.842 316.488 244.673 292.995 242.313C291.408 231.261 299.457 215.923 280.997 219.817C284.695 227.835 270.694 288.661 292.992 277.812C294.245 259.537 285.99 251.522 310.497 254.317C312.462 265.614 303.289 282.239 322.495 278.313C318.798 270.292 332.799 209.471 310.496 220.315Z" fill="#CB1BE8"/>
<path id="Vector_21" d="M433.496 220.315C435.143 221.332 418.406 239.039 418.045 240.49C417.543 239.252 401.567 221.927 403.496 220.316C381.267 209.331 395.121 270.511 391.492 278.318C391.496 278.315 403.496 278.315 403.496 278.315V240.317C420.363 263.067 417.231 259.238 433.497 239.2L433.496 278.315C455.725 289.304 441.872 228.116 445.5 220.312C445.496 220.315 433.496 220.315 433.496 220.315Z" fill="#4F41EF"/>
<path id="Vector_22" d="M380.496 220.315H332.496C329.676 237.137 339.001 231.495 350.498 232.315L350.496 278.315H362.496V232.315C373.94 231.537 383.352 237.063 380.496 220.315Z" fill="#A90DF2"/>
<path id="Vector_23" d="M467.496 266.315C464.725 251.107 464.725 235.523 467.496 220.315H455.496C455.565 227.918 455.475 258.597 455.482 272.627C455.481 274.141 456.082 275.593 457.152 276.665C458.222 277.736 459.674 278.338 461.188 278.339C473.278 278.355 496.358 278.266 503.496 278.315L503.496 266.315H467.496Z" fill="#6800ED"/>
</g>
<path id="Vector_24" d="M127.181 262.44H78.407C76.0201 262.44 73.7309 263.388 72.043 265.076C70.3552 266.764 69.407 269.053 69.407 271.44C69.407 273.827 70.3552 276.116 72.043 277.804C73.7309 279.492 76.0201 280.44 78.407 280.44H127.181C129.568 280.44 131.857 279.492 133.545 277.804C135.233 276.116 136.181 273.827 136.181 271.44C136.181 269.053 135.233 266.764 133.545 265.076C131.857 263.388 129.568 262.44 127.181 262.44Z" fill="#E6E6E6"/>
<path id="Vector_25" d="M569.392 517.568L559.491 517.567L554.781 479.377L569.394 479.378L569.392 517.568Z" fill="#FFB6B6"/>
<path id="Vector_26" d="M569.741 527.897L539.294 527.896V527.511C539.294 524.368 540.543 521.353 542.765 519.131C544.987 516.909 548.002 515.66 551.144 515.66L556.707 511.441L567.083 515.661L569.741 515.661L569.741 527.897Z" fill="#2F2E41"/>
<path id="Vector_27" d="M604.392 517.568L594.491 517.567L589.781 479.377L604.394 479.378L604.392 517.568Z" fill="#FFB6B6"/>
<path id="Vector_28" d="M604.741 527.897L574.294 527.896V527.511C574.294 524.368 575.543 521.353 577.765 519.131C579.987 516.909 583.002 515.66 586.144 515.66L591.707 511.441L602.083 515.661L604.741 515.661L604.741 527.897Z" fill="#2F2E41"/>
<path id="Vector_29" d="M544.739 309.48C544.739 309.48 535.213 338.738 536.972 342.589C538.73 346.44 541.73 343.44 538.73 346.44C535.73 349.44 533.111 346.251 535.921 351.346C538.73 356.44 542.986 398.38 544.858 400.41C546.73 402.44 549.304 402.494 547.017 404.467C544.73 406.44 541.73 402.44 544.73 406.44C547.73 410.44 555.691 502.716 555.691 502.716H571.242C571.242 502.716 575.115 498.251 572.922 495.346C570.73 492.44 573.115 491.32 572.922 489.38C572.73 487.44 573.459 483.257 573.595 481.349C573.73 479.44 576.358 433.971 570.044 407.706L581.558 357.693L587.314 418.14C587.314 418.14 580.899 468.842 587.314 485.141C587.314 485.141 582.142 489.448 584.436 491.944C586.73 494.44 588.73 492.44 586.73 494.44C584.73 496.44 589.73 503.44 589.73 503.44L606.73 502.44L616.352 407.706C616.352 407.706 617.974 397.826 616.352 396.133C614.73 394.44 614.73 400.44 614.73 394.44V386.44C614.73 386.44 621.981 337.235 621.855 334.338C621.73 331.44 609.73 310.44 609.73 310.44L544.739 309.48Z" fill="#2F2E41"/>
<path id="Vector_30" d="M595.019 191.147L570.196 189.44L562.768 201.152L544.88 208.425V266.119C546.741 271.706 547.703 277.552 547.73 283.44C547.662 294.935 544.707 308.475 545.73 311.44C555.73 340.44 610.73 311.44 610.73 311.44L609.73 280.44L611.087 210.381L599.848 201.417L595.019 191.147Z" fill="#E6E6E6"/>
<g id="right-hand">
<path id="Vector_31" d="M543.733 322.005L542.021 303.763L531.464 303.287L533.96 322.509C533.32 323.453 532.956 324.557 532.909 325.697C532.862 326.837 533.134 327.968 533.694 328.962C534.254 329.956 535.08 330.774 536.08 331.324C537.08 331.874 538.213 332.134 539.353 332.075C540.492 332.016 541.592 331.641 542.53 330.991C543.468 330.341 544.206 329.442 544.661 328.396C545.116 327.35 545.27 326.197 545.106 325.068C544.942 323.939 544.466 322.878 543.733 322.005Z" fill="#FFB6B6"/>
<path id="Vector_32" d="M548.928 206.886L548.635 206.936C545.913 207.397 543.344 208.515 541.152 210.193C538.959 211.871 537.208 214.058 536.051 216.564C533.027 223.102 523.211 266.081 527.514 272.562C530.852 277.589 530.041 276.609 528.472 280.4C526.903 284.192 524.376 280.146 526.447 286.164C528.518 292.182 530.794 291.323 528.871 293.649C526.949 295.974 524.977 295.518 526.847 299.412C528.716 303.307 528.412 304.621 528.766 306.088C529.119 307.554 528.812 317.869 528.812 317.869C528.812 317.869 540.088 317.014 545.7 319.696C545.7 319.696 542.569 309.278 544.339 307.61C546.109 305.942 548.233 305.741 546.717 303.313C545.201 300.886 541.763 300.783 545.505 299.571C549.247 298.359 548.042 276.615 548.042 276.615C554.205 260.475 551.77 233.927 548.928 206.886Z" fill="#E6E6E6"/>
</g>
<g id="left-hand">
<path id="Vector_33" d="M616.922 323.306L617.711 305.002L628.231 303.994L626.708 323.317C627.395 324.228 627.814 325.312 627.919 326.448C628.023 327.585 627.809 328.727 627.299 329.748C626.79 330.769 626.006 331.628 625.035 332.227C624.064 332.827 622.946 333.144 621.805 333.143C620.664 333.142 619.546 332.822 618.576 332.221C617.607 331.619 616.825 330.759 616.317 329.737C615.81 328.715 615.598 327.571 615.705 326.435C615.812 325.3 616.233 324.216 616.922 323.306Z" fill="#FFB6B6"/>
<path id="Vector_34" d="M605.926 208.597L606.221 208.632C608.963 208.955 611.585 209.942 613.859 211.507C616.134 213.072 617.993 215.168 619.275 217.613C622.624 223.99 633.22 267.182 630.626 273.109C628.206 278.637 628.306 277.277 630.065 280.985C631.823 284.693 634.142 280.525 632.378 286.639C630.613 292.754 628.297 292.011 630.334 294.237C632.371 296.462 634.318 295.907 632.647 299.891C630.976 303.875 631.346 305.172 631.067 306.655C630.788 308.137 631.616 318.424 631.616 318.424C631.616 318.424 620.31 318.138 614.841 321.1C614.841 321.1 617.443 310.538 615.59 308.961C613.738 307.385 611.607 307.29 612.999 304.789C614.39 302.288 617.819 302.013 614.02 300.991C610.222 299.969 610.329 278.192 610.329 278.192L605.926 208.597Z" fill="#E6E6E6"/>
</g>
<path id="Vector_35" d="M583.217 185.773C593.911 185.773 602.579 177.104 602.579 166.41C602.579 155.717 593.911 147.048 583.217 147.048C572.524 147.048 563.855 155.717 563.855 166.41C563.855 177.104 572.524 185.773 583.217 185.773Z" fill="#FFB6B6"/>
<path id="Vector_36" d="M596.692 182.984C599.385 180.877 599.646 176.86 601.944 174.327C605.786 170.094 607.591 165.539 605.579 160.522C603.799 156.085 604.177 150.631 600.343 147.775C602.226 147.093 602.669 145.678 601.008 145.651C599.887 145.634 595.71 147.775 597.72 145.108C599.73 142.44 595.926 143.493 596.177 142.401C596.429 141.309 598.042 140.704 598.754 141.57C598.153 140.956 597.42 140.488 596.611 140.201C595.801 139.913 594.937 139.815 594.084 139.913C593.23 140.01 592.411 140.301 591.687 140.764C590.963 141.227 590.355 141.848 589.908 142.582C587.644 139.188 585.24 136.852 581.774 139.006C578.371 141.122 578.415 143.736 574.756 143.108C573.035 142.813 572.872 146.063 571.697 147.354C571.154 148.04 570.447 148.579 569.642 148.923C568.837 149.266 567.959 149.402 567.088 149.32C565.373 148.995 564.061 146.858 565.022 145.4L560.979 154.624L559.35 152.625C556.761 154.313 557.611 158.716 560.217 160.376C562.824 162.037 566.21 161.682 569.212 160.946C572.824 160.06 576.554 159.75 580.263 160.029C585.93 160.83 589.876 167.604 587.778 172.928C589.955 170.79 593.982 172.564 595.11 175.399C596.238 178.234 595.411 181.429 594.575 184.363" fill="#2F2E41"/>
</g>
<defs>
<linearGradient id="paint0_linear_0_1" x1="136.807" y1="353.582" x2="136.807" y2="411.605" gradientUnits="userSpaceOnUse">
<stop stop-color="#152AE5"/>
<stop offset="1" stop-color="#1543E6" stop-opacity="0"/>
</linearGradient>
<linearGradient id="paint1_linear_0_1" x1="197.125" y1="353" x2="152" y2="427" gradientUnits="userSpaceOnUse">
<stop stop-color="#152AE5"/>
<stop offset="1" stop-color="#1543E5" stop-opacity="0"/>
</linearGradient>
<linearGradient id="paint2_linear_0_1" x1="75.5558" y1="353.022" x2="38" y2="417" gradientUnits="userSpaceOnUse">
<stop stop-color="#1543E5"/>
<stop offset="1" stop-color="#1543E5" stop-opacity="0"/>
</linearGradient>
<clipPath id="clip0_0_1">
<rect width="693" height="528" fill="white"/>
</clipPath>
</defs>
</svg>
